<svg xmlns="http://www.w3.org/2000/svg" width="1536" height="1024" viewBox="0 0 1536 1024">
  <defs>
    <linearGradient id="g" x1="0" y1="0" x2="1" y2="1"><stop stop-color="#ea580c"/><stop offset=".52" stop-color="#451a03"/><stop offset="1" stop-color="#fde68a"/></linearGradient>
    <radialGradient id="r" cx=".72" cy=".28" r=".54"><stop stop-color="#fff" stop-opacity=".34"/><stop offset="1" stop-color="#fff" stop-opacity="0"/></radialGradient>
  </defs>
  <rect width="1536" height="1024" fill="url(#g)"/>
  <rect width="1536" height="1024" fill="url(#r)"/>
  <circle cx="1170" cy="250" r="170" fill="#fff" opacity=".15"/>
  <circle cx="350" cy="760" r="260" fill="#000" opacity=".13"/>
  <path d="M0 820 C260 710 430 900 710 780 C990 660 1130 730 1536 610 L1536 1024 L0 1024 Z" fill="#fff" opacity=".16"/>
  <rect x="92" y="118" width="520" height="28" rx="14" fill="#fff" opacity=".38"/>
  <rect x="92" y="172" width="760" height="54" rx="27" fill="#fff" opacity=".18"/>
  <rect x="92" y="254" width="430" height="22" rx="11" fill="#fff" opacity=".24"/>
  <g opacity=".20">
    <circle cx="980" cy="660" r="86" fill="#fff"/>
    <circle cx="1100" cy="710" r="54" fill="#fff"/>
    <circle cx="1210" cy="620" r="122" fill="#fff"/>
  </g>
</svg>